<svg width="48" height="48" viewBox="0 0 48 48" fill="none" xmlns="http://www.w3.org/2000/svg">
  <defs>
    <linearGradient id="premium-gradient" x1="0%" y1="0%" x2="100%" y2="100%">
      <stop offset="0%" stop-color="#0F172A" />
      <stop offset="100%" stop-color="#06B6D4" />
    </linearGradient>
    <clipPath id="hex-clip">
      <path d="M24 4L41.3205 14V34L24 44L6.67949 34V14L24 4Z" />
    </clipPath>
  </defs>

  <!-- Hexagonal Shield Base -->
  <path d="M24 4L41.3205 14V34L24 44L6.67949 34V14L24 4Z" 
        fill="url(#premium-gradient)" />
  
  <!-- Minimalist Interlocking Biotech Mark -->
  <g clip-path="url(#hex-clip)">
    <path d="M16 20C16 16 20 14 24 14C28 14 32 16 32 20V28C32 32 28 34 24 34C20 34 16 32 16 28V20Z" 
          stroke="white" stroke-width="2.5" stroke-opacity="0.2" fill="none"/>
    <path d="M24 14V34" stroke="white" stroke-width="1.5" stroke-opacity="0.3"/>
    <circle cx="24" cy="24" r="8" stroke="white" stroke-width="3" stroke-linecap="round" />
    <path d="M20 20L28 28M28 20L20 28" stroke="white" stroke-width="2.5" stroke-linecap="round"/>
  </g>
  
  <!-- Center Highlight -->
  <circle cx="24" cy="24" r="1.5" fill="white"/>
</svg>
